<mxfile host="app.diagrams.net" modified="2021-09-18T05:20:18.332Z" agent="5.0 (Windows NT 10.0; Win64; x64) AppleWebKit/537.36 (KHTML, like Gecko) Chrome/93.0.4577.82 Safari/537.36" etag="fXZxU1X7UNvsni-ifNJB" version="15.2.9" type="github">
  <diagram id="orbvW4icIresRJUPt5oi" name="Page-1">
    <mxGraphModel dx="526" dy="1619" grid="1" gridSize="10" guides="1" tooltips="1" connect="1" arrows="1" fold="1" page="1" pageScale="1" pageWidth="827" pageHeight="1169" math="0" shadow="0">
      <root>
        <mxCell id="0" />
        <mxCell id="1" parent="0" />
        <mxCell id="mcoX3NbD7hPJk5WacRjC-4" value="" style="rounded=0;whiteSpace=wrap;html=1;" parent="1" vertex="1">
          <mxGeometry x="170" y="-904" width="130" height="754" as="geometry" />
        </mxCell>
        <mxCell id="mcoX3NbD7hPJk5WacRjC-15" style="edgeStyle=orthogonalEdgeStyle;rounded=0;orthogonalLoop=1;jettySize=auto;html=1;exitX=1;exitY=0.3333333333333333;exitDx=0;exitDy=0;exitPerimeter=0;" parent="1" source="mcoX3NbD7hPJk5WacRjC-5" target="mcoX3NbD7hPJk5WacRjC-11" edge="1">
          <mxGeometry relative="1" as="geometry" />
        </mxCell>
        <mxCell id="mcoX3NbD7hPJk5WacRjC-5" value="Cliente" style="shape=umlActor;verticalLabelPosition=bottom;verticalAlign=top;html=1;outlineConnect=0;" parent="1" vertex="1">
          <mxGeometry x="100" y="-835" width="30" height="60" as="geometry" />
        </mxCell>
        <mxCell id="mcoX3NbD7hPJk5WacRjC-38" style="edgeStyle=orthogonalEdgeStyle;rounded=0;orthogonalLoop=1;jettySize=auto;html=1;exitX=0.5;exitY=0.5;exitDx=0;exitDy=0;exitPerimeter=0;" parent="1" source="mcoX3NbD7hPJk5WacRjC-6" target="mcoX3NbD7hPJk5WacRjC-12" edge="1">
          <mxGeometry relative="1" as="geometry">
            <mxPoint x="130" y="-370" as="targetPoint" />
          </mxGeometry>
        </mxCell>
        <mxCell id="mcoX3NbD7hPJk5WacRjC-6" value="Instructor" style="shape=umlActor;verticalLabelPosition=bottom;verticalAlign=top;html=1;outlineConnect=0;" parent="1" vertex="1">
          <mxGeometry x="100" y="-440" width="30" height="60" as="geometry" />
        </mxCell>
        <mxCell id="mcoX3NbD7hPJk5WacRjC-31" style="edgeStyle=orthogonalEdgeStyle;rounded=0;orthogonalLoop=1;jettySize=auto;html=1;" parent="1" source="mcoX3NbD7hPJk5WacRjC-10" target="mcoX3NbD7hPJk5WacRjC-13" edge="1">
          <mxGeometry relative="1" as="geometry" />
        </mxCell>
        <mxCell id="mcoX3NbD7hPJk5WacRjC-10" value="Coordinador" style="shape=umlActor;verticalLabelPosition=bottom;verticalAlign=top;html=1;outlineConnect=0;" parent="1" vertex="1">
          <mxGeometry x="100" y="-600" width="30" height="60" as="geometry" />
        </mxCell>
        <mxCell id="mcoX3NbD7hPJk5WacRjC-20" style="edgeStyle=orthogonalEdgeStyle;rounded=0;orthogonalLoop=1;jettySize=auto;html=1;entryX=0;entryY=0.5;entryDx=0;entryDy=0;" parent="1" source="mcoX3NbD7hPJk5WacRjC-11" target="mcoX3NbD7hPJk5WacRjC-16" edge="1">
          <mxGeometry relative="1" as="geometry" />
        </mxCell>
        <mxCell id="mcoX3NbD7hPJk5WacRjC-21" style="edgeStyle=orthogonalEdgeStyle;rounded=0;orthogonalLoop=1;jettySize=auto;html=1;" parent="1" source="mcoX3NbD7hPJk5WacRjC-11" target="mcoX3NbD7hPJk5WacRjC-17" edge="1">
          <mxGeometry relative="1" as="geometry" />
        </mxCell>
        <mxCell id="mcoX3NbD7hPJk5WacRjC-22" style="edgeStyle=orthogonalEdgeStyle;rounded=0;orthogonalLoop=1;jettySize=auto;html=1;" parent="1" source="mcoX3NbD7hPJk5WacRjC-11" target="mcoX3NbD7hPJk5WacRjC-18" edge="1">
          <mxGeometry relative="1" as="geometry" />
        </mxCell>
        <mxCell id="mcoX3NbD7hPJk5WacRjC-23" style="edgeStyle=orthogonalEdgeStyle;rounded=0;orthogonalLoop=1;jettySize=auto;html=1;entryX=0.013;entryY=0.76;entryDx=0;entryDy=0;entryPerimeter=0;" parent="1" source="mcoX3NbD7hPJk5WacRjC-11" target="mcoX3NbD7hPJk5WacRjC-19" edge="1">
          <mxGeometry relative="1" as="geometry" />
        </mxCell>
        <mxCell id="mcoX3NbD7hPJk5WacRjC-11" value="Menu Cliente" style="ellipse;whiteSpace=wrap;html=1;" parent="1" vertex="1">
          <mxGeometry x="190" y="-850" width="100" height="70" as="geometry" />
        </mxCell>
        <mxCell id="uYmpgBWCDoZYOr3c5FkM-2" style="edgeStyle=orthogonalEdgeStyle;rounded=0;orthogonalLoop=1;jettySize=auto;html=1;entryX=0;entryY=0.5;entryDx=0;entryDy=0;" edge="1" parent="1" source="mcoX3NbD7hPJk5WacRjC-12" target="uYmpgBWCDoZYOr3c5FkM-1">
          <mxGeometry relative="1" as="geometry" />
        </mxCell>
        <mxCell id="mcoX3NbD7hPJk5WacRjC-12" value="Menu Instructor" style="ellipse;whiteSpace=wrap;html=1;" parent="1" vertex="1">
          <mxGeometry x="190" y="-445" width="100" height="70" as="geometry" />
        </mxCell>
        <mxCell id="mcoX3NbD7hPJk5WacRjC-33" style="edgeStyle=orthogonalEdgeStyle;rounded=0;orthogonalLoop=1;jettySize=auto;html=1;entryX=0;entryY=0.5;entryDx=0;entryDy=0;" parent="1" source="mcoX3NbD7hPJk5WacRjC-13" target="mcoX3NbD7hPJk5WacRjC-25" edge="1">
          <mxGeometry relative="1" as="geometry" />
        </mxCell>
        <mxCell id="mcoX3NbD7hPJk5WacRjC-34" style="edgeStyle=orthogonalEdgeStyle;rounded=0;orthogonalLoop=1;jettySize=auto;html=1;entryX=0;entryY=0.5;entryDx=0;entryDy=0;" parent="1" source="mcoX3NbD7hPJk5WacRjC-13" target="mcoX3NbD7hPJk5WacRjC-26" edge="1">
          <mxGeometry relative="1" as="geometry" />
        </mxCell>
        <mxCell id="mcoX3NbD7hPJk5WacRjC-35" style="edgeStyle=orthogonalEdgeStyle;rounded=0;orthogonalLoop=1;jettySize=auto;html=1;entryX=0;entryY=0.5;entryDx=0;entryDy=0;" parent="1" source="mcoX3NbD7hPJk5WacRjC-13" target="mcoX3NbD7hPJk5WacRjC-27" edge="1">
          <mxGeometry relative="1" as="geometry" />
        </mxCell>
        <mxCell id="mcoX3NbD7hPJk5WacRjC-36" value="" style="edgeStyle=orthogonalEdgeStyle;rounded=0;orthogonalLoop=1;jettySize=auto;html=1;" parent="1" source="mcoX3NbD7hPJk5WacRjC-13" target="mcoX3NbD7hPJk5WacRjC-26" edge="1">
          <mxGeometry relative="1" as="geometry" />
        </mxCell>
        <mxCell id="mcoX3NbD7hPJk5WacRjC-37" style="edgeStyle=orthogonalEdgeStyle;rounded=0;orthogonalLoop=1;jettySize=auto;html=1;entryX=0;entryY=0.5;entryDx=0;entryDy=0;" parent="1" source="mcoX3NbD7hPJk5WacRjC-13" target="mcoX3NbD7hPJk5WacRjC-24" edge="1">
          <mxGeometry relative="1" as="geometry" />
        </mxCell>
        <mxCell id="mcoX3NbD7hPJk5WacRjC-13" value="Menu Coordinador" style="ellipse;whiteSpace=wrap;html=1;" parent="1" vertex="1">
          <mxGeometry x="190" y="-605" width="100" height="70" as="geometry" />
        </mxCell>
        <mxCell id="mcoX3NbD7hPJk5WacRjC-16" value="Consultar Listado Clases" style="ellipse;whiteSpace=wrap;html=1;" parent="1" vertex="1">
          <mxGeometry x="334" y="-904" width="80" height="50" as="geometry" />
        </mxCell>
        <mxCell id="mcoX3NbD7hPJk5WacRjC-17" value="Programar clase" style="ellipse;whiteSpace=wrap;html=1;" parent="1" vertex="1">
          <mxGeometry x="334" y="-850" width="80" height="50" as="geometry" />
        </mxCell>
        <mxCell id="mcoX3NbD7hPJk5WacRjC-18" value="Actualizar clase" style="ellipse;whiteSpace=wrap;html=1;" parent="1" vertex="1">
          <mxGeometry x="334" y="-800" width="80" height="50" as="geometry" />
        </mxCell>
        <mxCell id="mcoX3NbD7hPJk5WacRjC-19" value="Eliminar clase" style="ellipse;whiteSpace=wrap;html=1;" parent="1" vertex="1">
          <mxGeometry x="334" y="-750" width="80" height="50" as="geometry" />
        </mxCell>
        <mxCell id="mcoX3NbD7hPJk5WacRjC-24" value="Crear Cliente" style="ellipse;whiteSpace=wrap;html=1;" parent="1" vertex="1">
          <mxGeometry x="334" y="-680" width="80" height="50" as="geometry" />
        </mxCell>
        <mxCell id="mcoX3NbD7hPJk5WacRjC-25" value="Crear Clases" style="ellipse;whiteSpace=wrap;html=1;" parent="1" vertex="1">
          <mxGeometry x="334" y="-630" width="80" height="50" as="geometry" />
        </mxCell>
        <mxCell id="mcoX3NbD7hPJk5WacRjC-26" value="Crear Instructores" style="ellipse;whiteSpace=wrap;html=1;" parent="1" vertex="1">
          <mxGeometry x="334" y="-580" width="80" height="50" as="geometry" />
        </mxCell>
        <mxCell id="mcoX3NbD7hPJk5WacRjC-27" value="Crear Horarios" style="ellipse;whiteSpace=wrap;html=1;" parent="1" vertex="1">
          <mxGeometry x="334" y="-530" width="80" height="50" as="geometry" />
        </mxCell>
        <mxCell id="uYmpgBWCDoZYOr3c5FkM-1" value="Consultar clases asignadas" style="ellipse;whiteSpace=wrap;html=1;" vertex="1" parent="1">
          <mxGeometry x="334" y="-435" width="80" height="50" as="geometry" />
        </mxCell>
        <mxCell id="uYmpgBWCDoZYOr3c5FkM-4" value="Administrador" style="shape=umlActor;verticalLabelPosition=bottom;verticalAlign=top;html=1;outlineConnect=0;" vertex="1" parent="1">
          <mxGeometry x="100" y="-300" width="30" height="60" as="geometry" />
        </mxCell>
        <mxCell id="uYmpgBWCDoZYOr3c5FkM-8" style="edgeStyle=orthogonalEdgeStyle;rounded=0;orthogonalLoop=1;jettySize=auto;html=1;entryX=0;entryY=0.5;entryDx=0;entryDy=0;" edge="1" parent="1" source="uYmpgBWCDoZYOr3c5FkM-5" target="uYmpgBWCDoZYOr3c5FkM-6">
          <mxGeometry relative="1" as="geometry" />
        </mxCell>
        <mxCell id="uYmpgBWCDoZYOr3c5FkM-9" style="edgeStyle=orthogonalEdgeStyle;rounded=0;orthogonalLoop=1;jettySize=auto;html=1;" edge="1" parent="1" source="uYmpgBWCDoZYOr3c5FkM-5" target="uYmpgBWCDoZYOr3c5FkM-7">
          <mxGeometry relative="1" as="geometry" />
        </mxCell>
        <mxCell id="uYmpgBWCDoZYOr3c5FkM-5" value="Menu Administrador" style="ellipse;whiteSpace=wrap;html=1;" vertex="1" parent="1">
          <mxGeometry x="185" y="-300" width="100" height="70" as="geometry" />
        </mxCell>
        <mxCell id="uYmpgBWCDoZYOr3c5FkM-6" value="Crear Usuarios" style="ellipse;whiteSpace=wrap;html=1;" vertex="1" parent="1">
          <mxGeometry x="334" y="-330" width="80" height="50" as="geometry" />
        </mxCell>
        <mxCell id="uYmpgBWCDoZYOr3c5FkM-7" value="Eliminar usuarios" style="ellipse;whiteSpace=wrap;html=1;" vertex="1" parent="1">
          <mxGeometry x="334" y="-240" width="80" height="50" as="geometry" />
        </mxCell>
      </root>
    </mxGraphModel>
  </diagram>
</mxfile>
